HIERARCHY
ROOT Hips
{
	OFFSET -0.001795 -0.223333 0.028219
	CHANNELS 6 Xposition Yposition Zposition Zrotation Yrotation Xrotation 
	JOINT LeftUpLeg
	{
		OFFSET 0.069520 -0.091406 -0.006815
		CHANNELS 3 Zrotation Yrotation Xrotation
		JOINT LeftLeg
		{
			OFFSET 0.034277 -0.375199 -0.004496
			CHANNELS 3 Zrotation Yrotation Xrotation
			JOINT LeftFoot
			{
				OFFSET -0.013596 -0.397961 -0.043693
				CHANNELS 3 Zrotation Yrotation Xrotation
				JOINT LeftToe
				{
					OFFSET 0.026358 -0.055791 0.119288
					CHANNELS 3 Zrotation Yrotation Xrotation
					End Site
					{
						OFFSET 0.000000 0.000000 0.000000
					}
				}
			}
		}
	}
	JOINT RightUpLeg
	{
		OFFSET -0.067670 -0.090522 -0.004320
		CHANNELS 3 Zrotation Yrotation Xrotation
		JOINT RightLeg
		{
			OFFSET -0.038290 -0.382569 -0.008850
			CHANNELS 3 Zrotation Yrotation Xrotation
			JOINT RightFoot
			{
				OFFSET 0.015774 -0.398415 -0.042312
				CHANNELS 3 Zrotation Yrotation Xrotation
				JOINT RightToe
				{
					OFFSET -0.025372 -0.048144 0.123348
					CHANNELS 3 Zrotation Yrotation Xrotation
					End Site
					{
						OFFSET 0.000000 0.000000 0.000000
					}
				}
			}
		}
	}
	JOINT Spine
	{
		OFFSET -0.002533 0.108963 -0.026696
		CHANNELS 3 Zrotation Yrotation Xrotation
		JOINT Spine1
		{
			OFFSET 0.005487 0.135180 0.001092
			CHANNELS 3 Zrotation Yrotation Xrotation
			JOINT Spine2
			{
				OFFSET 0.001457 0.052922 0.025425
				CHANNELS 3 Zrotation Yrotation Xrotation
				JOINT Neck
				{
					OFFSET -0.002778 0.213870 -0.042857
					CHANNELS 3 Zrotation Yrotation Xrotation
					JOINT Head
					{
						OFFSET 0.005152 0.064970 0.051349
						CHANNELS 3 Zrotation Yrotation Xrotation
						End Site
						{
							OFFSET 0.000000 0.000000 0.000000
						}
					}
				}
				JOINT LeftShoulder
				{
					OFFSET 0.078845 0.121749 -0.034090
					CHANNELS 3 Zrotation Yrotation Xrotation
					JOINT LeftArm
					{
						OFFSET 0.090977 0.030469 -0.008868
						CHANNELS 3 Zrotation Yrotation Xrotation
						JOINT LeftForeArm
						{
							OFFSET 0.259612 -0.012772 -0.027456
							CHANNELS 3 Zrotation Yrotation Xrotation
							JOINT LeftHand
							{
								OFFSET 0.249234 0.008986 -0.001171
								CHANNELS 3 Zrotation Yrotation Xrotation
								End Site
								{
									OFFSET 0.000000 0.000000 0.000000
								}
							}
						}
					}
				}
				JOINT RightShoulder
				{
					OFFSET -0.081759 0.118833 -0.038615
					CHANNELS 3 Zrotation Yrotation Xrotation
					JOINT RightArm
					{
						OFFSET -0.096012 0.032551 -0.009143
						CHANNELS 3 Zrotation Yrotation Xrotation
						JOINT RightForeArm
						{
							OFFSET -0.253742 -0.013329 -0.021401
							CHANNELS 3 Zrotation Yrotation Xrotation
							JOINT RightHand
							{
								OFFSET -0.255298 0.007772 -0.005559
								CHANNELS 3 Zrotation Yrotation Xrotation
								End Site
								{
									OFFSET 0.000000 0.000000 0.000000
								}
							}
						}
					}
				}
			}
		}
	}
}
MOTION
Frames: 13
Frame Time: 0.050000
0.000000 0.945734 0.000000 -1.550612 -5.452361 22.777246 3.902399 -1.251113 -24.612207 -5.818503 0.866205 7.229746 3.223833 8.612617 8.404886 0.000000 0.000000 0.000000 -0.335135 3.776099 -33.136853 0.446697 0.031476 1.774430 1.083510 -7.789133 23.175258 0.000000 0.000000 0.000000 1.399754 -1.019634 20.398879 -0.195442 0.213744 -8.035929 -4.744100 3.510150 6.948945 8.455314 -2.372588 -24.354819 0.000000 0.000000 0.000000 19.129212 -29.557320 7.202709 23.624618 -55.079190 -14.390471 50.868347 -4.059367 -1.076659 0.000000 0.000000 0.000000 -19.296053 23.526916 5.919066 -35.173000 66.878331 -25.983298 -48.345123 4.142436 -0.126740 0.000000 0.000000 0.000000 
0.001796 0.946305 -0.005855 -2.294893 -5.962341 23.546386 4.473138 -1.128956 -25.064078 -5.640645 0.813441 6.142298 3.511520 9.105607 8.644631 0.000000 0.000000 0.000000 0.453531 4.164480 -34.269046 -0.401166 0.089602 1.162062 2.382762 -6.715012 25.762528 0.000000 0.000000 0.000000 0.107597 -0.686072 21.687179 2.011189 -0.513614 -9.680330 -5.825179 6.975588 6.425600 11.214064 -4.151707 -20.072755 0.000000 0.000000 0.000000 20.591937 -28.557881 7.130681 26.639319 -55.237498 -16.919404 53.724323 -2.168615 -0.506115 0.000000 0.000000 0.000000 -20.894623 21.181419 4.924642 -38.546331 68.162792 -27.307958 -48.509951 -3.908593 3.327356 0.000000 0.000000 0.000000 
0.003961 0.943712 -0.012263 -2.840699 -4.998140 22.443492 5.993984 -0.918185 -25.267571 -7.223903 1.144614 7.770900 3.301875 8.617846 7.490416 0.000000 0.000000 0.000000 0.554892 4.031299 -33.763338 0.174781 0.030330 1.095900 2.152070 -7.287430 27.315343 0.000000 0.000000 0.000000 2.017272 -1.313147 22.830055 0.873860 -0.146269 -8.822414 -6.975447 8.205845 5.180589 12.406519 -5.698790 -15.170963 0.000000 0.000000 0.000000 20.632428 -28.496607 7.311334 24.267129 -54.102361 -15.844680 58.915877 -5.455356 -2.556217 0.000000 0.000000 0.000000 -21.680403 22.189192 4.851415 -37.717006 63.885520 -23.601004 -48.549462 -6.803469 4.628719 0.000000 0.000000 0.000000 
0.006385 0.942517 -0.018739 -2.674492 -3.575666 23.125997 5.765337 -1.083578 -26.869888 -6.867447 1.051010 8.181513 2.766313 7.723703 7.208973 0.000000 0.000000 0.000000 0.504415 4.037225 -34.920059 -0.468340 0.077271 0.745376 1.096926 -8.920050 28.916969 0.000000 0.000000 0.000000 2.421193 -1.532109 23.282438 0.789573 -0.088250 -9.213472 -7.940452 9.467300 5.617756 13.606058 -6.308673 -15.067221 0.000000 0.000000 0.000000 21.880339 -28.804435 7.389566 27.212316 -53.551095 -17.649160 64.595901 -3.696354 -2.161510 0.000000 0.000000 0.000000 -23.360880 20.488646 3.992944 -38.981709 62.501114 -22.628253 -49.680554 -11.980296 7.097787 0.000000 0.000000 0.000000 
0.009110 0.940957 -0.024706 -2.323881 -2.436011 22.665756 5.571323 -1.213701 -26.973591 -7.182291 1.078312 8.254753 2.306159 6.868048 6.723915 0.000000 0.000000 0.000000 -0.851937 3.661357 -35.543362 0.480965 0.014644 1.578356 0.865350 -9.250277 30.303826 0.000000 0.000000 0.000000 2.508011 -1.699120 24.724644 0.382796 0.071058 -9.247196 -8.286697 10.640794 5.554946 15.391939 -8.134071 -12.302869 0.000000 0.000000 0.000000 20.303497 -30.223489 7.962410 25.487241 -52.882886 -17.011212 70.010114 -7.117997 -4.934479 0.000000 0.000000 0.000000 -21.777956 20.589856 4.112032 -36.430819 61.295625 -20.038449 -53.033009 -13.167549 8.514057 0.000000 0.000000 0.000000 
0.012190 0.940184 -0.029429 -2.141468 -1.071462 23.009143 5.316441 -1.393637 -27.894719 -7.008376 1.007841 8.362636 1.759064 5.931851 6.570298 0.000000 0.000000 0.000000 -1.713572 3.371669 -36.266525 0.985184 -0.019256 2.307280 0.468218 -9.220673 29.221765 0.000000 0.000000 0.000000 2.522984 -1.816678 25.069345 0.605888 0.021237 -9.521389 -7.996550 11.640809 6.364475 15.367505 -7.769793 -13.170287 0.000000 0.000000 0.000000 18.424622 -30.204012 8.305442 22.356528 -53.937272 -16.404884 75.921543 -9.425944 -7.489473 0.000000 0.000000 0.000000 -21.964915 21.029692 3.998019 -31.359280 59.950745 -16.255936 -56.871600 -12.899170 9.505148 0.000000 0.000000 0.000000 
0.015137 0.940729 -0.032456 -1.725607 0.339856 23.076357 4.965367 -1.601113 -28.625852 -7.116137 0.999024 8.821661 1.075861 4.885677 6.908453 0.000000 0.000000 0.000000 -2.833697 2.946501 -36.586663 1.557474 -0.077350 2.870483 0.078340 -9.365387 29.024887 0.000000 0.000000 0.000000 2.551329 -1.909685 24.960557 0.321094 0.132852 -9.314077 -7.887368 11.135517 6.800224 15.623527 -7.562072 -14.384940 0.000000 0.000000 0.000000 15.478035 -30.196822 8.626804 16.573805 -56.217119 -14.433494 79.402646 -15.401230 -12.591748 0.000000 0.000000 0.000000 -19.769311 20.874699 4.372449 -27.235654 61.440150 -14.752251 -60.424584 -9.813481 8.785184 0.000000 0.000000 0.000000 
0.017983 0.941523 -0.032993 -1.933311 1.757336 23.026635 5.522794 -1.615266 -28.875371 -7.666044 1.062886 8.975002 0.465142 3.933371 7.133051 0.000000 0.000000 0.000000 -3.341426 2.638392 -36.372871 2.045426 -0.139153 3.227961 0.429557 -8.406410 28.441619 0.000000 0.000000 0.000000 2.845284 -2.085095 24.845989 0.412868 0.121990 -9.413826 -7.850771 11.465994 6.552262 16.055667 -8.423804 -12.361515 0.000000 0.000000 0.000000 11.005857 -31.240821 9.347715 8.641266 -57.364794 -10.860598 80.471860 -23.532563 -19.471797 0.000000 0.000000 0.000000 -15.452839 21.417457 5.434176 -19.340651 63.827806 -11.218913 -64.295828 -2.634333 5.648892 0.000000 0.000000 0.000000 
0.020796 0.942228 -0.030166 -2.244438 2.914910 22.508973 5.620588 -1.667701 -28.606047 -7.372030 0.994973 9.607656 0.014645 3.105405 6.919827 0.000000 0.000000 0.000000 -2.982508 2.543976 -35.516103 1.391047 -0.045635 3.814467 0.919361 -7.149648 27.138428 0.000000 0.000000 0.000000 3.231382 -2.192622 23.975009 0.397392 0.113546 -8.571219 -7.905332 10.798183 6.321553 15.504331 -8.028962 -12.449338 0.000000 0.000000 0.000000 7.660541 -30.814470 9.538468 -0.696640 -58.125691 -6.203748 78.395737 -31.292941 -24.957225 0.000000 0.000000 0.000000 -11.892441 21.195944 6.180831 -7.426687 67.473392 -5.122110 -64.774679 5.192574 1.190159 0.000000 0.000000 0.000000 
0.024151 0.941939 -0.023736 -2.133898 4.510925 21.266438 5.381754 -1.730499 -26.992559 -7.374279 0.945114 9.657302 -0.648869 1.720161 6.301618 0.000000 0.000000 0.000000 -3.050092 2.261919 -33.996566 0.904620 0.039386 4.833714 0.684845 -6.846484 25.966950 0.000000 0.000000 0.000000 3.572270 -2.299746 23.250567 0.692399 0.028101 -8.511624 -7.913764 10.177793 7.171606 16.074967 -8.212213 -13.253723 0.000000 0.000000 0.000000 4.525538 -30.619850 9.714703 -9.838437 -58.155687 -1.659677 74.984360 -38.646679 -29.243404 0.000000 0.000000 0.000000 -8.951091 20.774961 6.656514 8.399246 68.816556 4.555981 -63.627949 12.867257 -3.198265 0.000000 0.000000 0.000000 
0.028251 0.940854 -0.014323 -1.909194 5.274848 20.115025 4.967278 -1.774815 -25.915019 -7.498654 0.971962 10.994315 -0.907165 0.940323 5.551433 0.000000 0.000000 0.000000 -3.100551 2.076148 -32.074224 0.219544 0.148763 5.217996 0.628531 -6.347492 24.299726 0.000000 0.000000 0.000000 3.908311 -2.302017 22.119733 0.261439 0.157723 -7.566665 -7.677721 8.667680 6.486581 14.620005 -7.518255 -12.541503 0.000000 0.000000 0.000000 0.993226 -30.501317 10.027739 -16.183821 -56.171591 1.807672 70.129063 -43.711787 -30.325847 0.000000 0.000000 0.000000 -5.948461 20.685597 7.293114 27.764085 68.275608 16.413173 -61.503077 20.552054 -7.374022 0.000000 0.000000 0.000000 
0.032874 0.939122 -0.003274 -1.414330 6.135915 18.583308 4.311582 -1.794059 -24.188890 -7.764311 1.012040 12.186425 -1.232352 -0.058202 4.691720 0.000000 0.000000 0.000000 -3.435202 1.811873 -29.636598 -0.367003 0.255322 5.851505 0.264009 -6.122030 21.856847 0.000000 0.000000 0.000000 4.157994 -2.216238 20.567715 0.279695 0.137521 -6.853478 -7.657843 7.456800 6.232398 14.721268 -6.977082 -14.810296 0.000000 0.000000 0.000000 -0.499444 -30.130199 10.045372 -19.952552 -56.016421 3.738298 65.997683 -46.878778 -30.256366 0.000000 0.000000 0.000000 -3.368726 20.886048 7.891096 38.455394 66.036989 21.942899 -59.120378 25.603605 -9.765597 0.000000 0.000000 0.000000 
0.037538 0.938120 0.008535 -1.182194 6.254319 17.168900 4.010872 -1.726618 -22.775146 -8.251503 1.138859 13.829538 -1.308553 -0.416727 4.273881 0.000000 0.000000 0.000000 -3.678798 1.665663 -27.628524 -0.581282 0.315718 6.650509 0.151632 -5.896664 20.323916 0.000000 0.000000 0.000000 4.360018 -2.036564 18.636741 -0.091201 0.286530 -6.963686 -7.048472 6.615176 6.400196 13.642990 -6.254457 -15.273852 0.000000 0.000000 0.000000 -0.811519 -29.773741 9.975605 -19.296997 -56.423381 3.627349 65.014520 -46.212203 -29.177186 0.000000 0.000000 0.000000 -2.372200 21.135492 8.091646 43.563130 63.498635 23.521262 -59.392488 28.478840 -11.446515 0.000000 0.000000 0.000000 
